<?xml version="1.0" encoding="utf-8"?>
<!-- Generator: Adobe Illustrator 19.0.0, SVG Export Plug-In . SVG Version: 6.00 Build 0)  -->
<svg version="1.1" id="Layer_1" xmlns="http://www.w3.org/2000/svg" xmlns:xlink="http://www.w3.org/1999/xlink" x="0px" y="0px"
	 viewBox="0 0 500 500" style="enable-background:new 0 0 200 200;" xml:space="preserve">
<style type="text/css">
	.cov-st0{clip-path:url(#XMLID_72_);fill:#1476C6;}
	.cov-st1{clip-path:url(#XMLID_73_);fill:#1476C6;}
</style>
<g id="XMLID_1_">
	<g id="XMLID_2_">
		<defs>
			<polygon id="XMLID_3_" points="67.5,376.9 432.5,376.9 432.5,123.1 67.5,123.1 67.5,376.9 			"/>
		</defs>
		<clipPath id="XMLID_72_">
			<use xlink:href="#XMLID_3_"  style="overflow:visible;"/>
		</clipPath>
		<path id="XMLID_4_" class="cov-st0" d="M154.2,283c-8.2,0-10.7-7.7-10.7-15.2c0-7.7,2.5-15.3,10.7-15.3c8.3,0,10.8,7.7,10.8,15.3
			C165,275.3,162.5,283,154.2,283 M154.2,242.6c-13.9,0-22.9,10-22.9,25.2c0,15.1,9,25.1,22.9,25.1c14,0,23-10,23-25.1
			C177.2,252.5,168.2,242.6,154.2,242.6"/>
		<polygon id="XMLID_7_" class="cov-st0" points="206.4,291.6 221.9,243.8 208.8,243.8 199.4,278.8 189.9,243.8 176.8,243.8
			192.3,291.6 		"/>
		<path id="XMLID_8_" class="cov-st0" d="M105.3,349.6c16.2,0,21.9-10.7,21.9-23.3v-34.7h-5.6V325c0.1,14.2-5.7,19.7-16.4,19.7
			s-16.5-5.4-16.4-19.7v-33.4h-5.6v34.7C83.3,338.9,89.1,349.6,105.3,349.6"/>
		<rect id="XMLID_9_" x="180.7" y="304" class="cov-st0" width="5.4" height="44.3"/>
		<polygon id="XMLID_10_" class="cov-st0" points="215.3,348.3 232.3,304 226.3,304 212.2,342.9 198.1,304 192.1,304 209.2,348.3 		"/>
		<rect id="XMLID_11_" x="341.6" y="304" class="cov-st0" width="5.4" height="44.3"/>
		<path id="XMLID_12_" class="cov-st0" d="M282.4,291.6v-25.5c0-9.7,2.8-13.7,9.4-13.7c5.7,0,7.8,3.9,7.8,11.7v27.4h12.2v-29.4
			c0-11.8-3.3-19.7-16.2-19.7c-5.1,0-11,2.6-13.8,7.9v-6.7h-11.6v47.7H282.4"/>
		<path id="XMLID_13_" class="cov-st0" d="M331.8,232l-12.2,4.2v7.6H315v8.8h4.6v24.7c0,11.6,6.5,14.8,13.9,14.8c2.2,0,4.6-0.1,6.5-0.4
			v-10.2c-1.1,0.2-2.1,0.3-3.2,0.3c-4.1,0-5.1-1.1-5.1-10.2v-19h8.3v-8.8h-8.3V232"/>
		<path id="XMLID_14_" class="cov-st0" d="M141.1,348.3v-25.8c0.2-8.7,5.3-15.2,13.9-15.2c8.8,0,11.2,5.7,11.2,13.4v27.6h5.4v-28.5
			c0-10.5-4.5-17.1-16.2-17.1c-6.1,0-12.6,3.8-14.6,9.1V304h-5.1v44.3H141.1"/>
		<path id="XMLID_15_" class="cov-st0" d="M286,348.3v-23.6c0-9.2,6.1-16.6,16.5-16.6v-5.4c-8.6,0-14,4.6-16.7,11.7V304h-5.1v44.3H286"
			/>
		<path id="XMLID_16_" class="cov-st0" d="M310.4,314.4c0-5.9,5-7.3,11.1-7.3c3.3,0,7.7,1.1,10.8,2.7v-5.2c-4.1-1.3-9-1.9-11.4-1.9
			c-8.2,0-16,3.2-16,11.7c0,14.2,24.3,11.6,24.3,22.5c0,5.7-6,8.3-11.7,8.3c-4.6,0-9.1-1.2-12.6-2.9v5.4c4.1,1.4,8.6,1.9,13,1.9
			c7.2,0,16.9-3.2,16.9-12.7C334.7,321.7,310.4,323.1,310.4,314.4"/>
		<path id="XMLID_17_" class="cov-st0" d="M397.3,348.3c-4.1,10.2-9.3,15.8-15.7,16.5l-1.8-4.2c6.7-1,9.8-7.1,12-12.3h-3.1l-15.5-40.1
			h-9.1v27.2c0,4.8,0.2,8.6,3.9,8.6c1,0,2.8,0,4.2-0.1v4.5c-1.6,0.1-3.3,0.1-4.4,0.1c-7,0-9.2-4.5-9.2-13v-27.4h-5.8V304h5.8v-9.7
			h5.5v9.7h13.5l15.5,40.6l16.1-40.6h6L397.3,348.3"/>
		<path id="XMLID_18_" class="cov-st0" d="M402.5,243.8l-11.2,35l-11.3-35h-10.1c-8.5,0-11.9,4.7-13.2,8.8v-8.8h-11.6v47.7h12.2v-21.4
			c0-10.5,4.2-15.5,12.9-15.7l12.6,37.1h4.8c-1.9,5.7-3.1,8.5-5.9,10.4l4,10.4l0,0c6-2,10.8-11.8,13.4-19l16.2-49.5H402.5"/>
		<path id="XMLID_19_" class="cov-st0" d="M118.4,271.9c-1.8,5.8-5.9,9.7-12.4,9.7c-11.5,0-15.9-10.3-15.9-20.5c0-10.7,4.3-21,15.9-21
			c6.1,0,11.4,4.2,12.6,9.9l11.6-4c-3.2-11.1-12.9-17.2-24.2-17.2c-18.1,0-28.7,14.2-28.7,32.4c0,17.7,10.6,31.8,28.7,31.8
			c11.6,0,20.4-6.4,24-17L118.4,271.9"/>
		<path id="XMLID_20_" class="cov-st0" d="M243.4,252.4c5.9,0,8.8,3.5,9.7,10.2h-19.8C233.5,258.9,235.7,252.4,243.4,252.4 M253.3,278.1
			c-1.4,2.5-4.9,4.9-9.1,4.9c-6.8,0-10.5-3.8-10.9-12.1h32c0.9-14.7-6.4-28.3-21.5-28.3c-13.5,0-22.7,10.9-22.7,25.2
			c0,14.8,8.7,25.1,22.7,25.1c8.5,0,15.1-3.5,19-11.5L253.3,278.1"/>
	</g>
	<g id="XMLID_23_">
		<defs>
			<rect id="XMLID_24_" x="77.4" y="126.2" width="346.3" height="238.6"/>
		</defs>
		<clipPath id="XMLID_73_">
			<use xlink:href="#XMLID_24_"  style="overflow:visible;"/>
		</clipPath>
		<path id="XMLID_25_" class="cov-st1" d="M253.4,307.3c8.8,0,13.8,7.6,14.1,15.8h-28.7C239.6,315,244.5,307.3,253.4,307.3 M266.2,336.7
			c-2.2,5-6.2,8.3-12.9,8.3c-10.4,0-14.5-9.5-14.6-17.4h34.1c0.4-12.4-5.2-24.9-19.5-24.9c-14.1,0-20,11.8-20,23.4
			c0,12.6,5.9,23.4,20,23.4c9.3,0,14.8-4,17.8-11.1h0L266.2,336.7"/>
		<path id="XMLID_28_" class="cov-st1" d="M409.1,187.1c-5.7,1.8-11.5,3.7-17,6.2c-2.1,0.9-4.3,2.2-6.3,3.5c-0.8-2.9,0-6.2,2.2-7.9
			c1.7,1.3,3.8,1.9,6.1,1.6c4.6-0.5,7.1-4.7,8.9-9c3.3-1.6,6.6-3.1,9.6-5.1c-0.6,3.4-1.8,7-3,10.2C409.5,187,409.7,187,409.1,187.1
			 M387.4,199.6c6-2.5,13.9-5.3,20-7.2C404.9,196.7,394.5,205.4,387.4,199.6 M401.8,182c-1.1,2.4-2.7,5.3-5,6.6
			c-2.2,1.4-6,1.3-8.1-0.4C392.2,185.6,397.6,183.7,401.8,182 M405.3,162.7c-0.2,4.5-0.7,8.5-1.9,12.6c-1.5,0.9-13.2,6.8-16,11.2
			C384.6,178,400.8,168.5,405.3,162.7 M406.5,161.4c1.3-1.5,3.8-6.1,4.2-7.1c2-4.7,2.1-10,2-12.1c0.7,2.1,1,4.4,1.3,6.6
			c0.9,6.9,0.4,14.4-0.5,21.5c-2.8,1.8-5.7,3.1-8.7,4.4C405.8,170.4,406.5,166.2,406.5,161.4 M399.2,209.3c-2.3,2.2-5.2,4.8-7.6,7.2
			c-4.7-1.6-10.2-2.1-15.2-1.1c0-1.7,0.1-3.2,0.6-4.8C383.9,209.2,391.9,209.6,399.2,209.3 M396,223c-2.5,2.3-7.4,3.8-12.2,2.5
			l5.4-4.4C391.5,222,393.7,222.3,396,223 M382.9,225.2c0,0-4.3-2.3-6.3-7.9c3.8,0.3,8.1,2.2,11.5,3.4
			C388.2,220.7,384.5,223.8,382.9,225.2 M371.9,228.2c1-3.1,0.9-6.6-0.3-9.8c0.2-0.1,2.7-1.1,4-1c2.2,6,6.3,8,6.6,8.4
			C379.4,227.9,375.5,229.1,371.9,228.2 M370.6,227.7c-5.1-4.5-0.6-8.4,0.1-8.7C371.5,221.5,371.6,225.2,370.6,227.7 M357.7,228
			c6-4.4,2.8-8.6,0.6-10.6c0.5-0.9,1-2.1,2.2-3.1c1.3,1.2,1.8,2.9,2,4.9c0.3,0,0.3,0,0.8,0c0.1-2.1-0.8-4.2-2-5.7
			c0.8-0.7,2.9-2.5,3.5-2.8c1.1,0.9,2,1.9,3,3.1c0,0-2.5,2.5-2.4,5.5l0.8,0c0.4-1.6,0.2-2.6,2.4-4.7c0.9,1,1.5,2.1,1.9,3.3
			c-1.3,1-6.4,5.5-0.1,10.6C363.5,238.7,357.7,228.6,357.7,228 M357.9,218.4c4.5,4.3,0.9,7.7-0.6,8.7
			C357.3,227.1,356.1,223,357.9,218.4 M355.9,227.6c-3.7,0.6-7.6-1.2-10.1-3.2c5.3-3,6.8-7.4,7.2-7.9c1.4,0.2,2.7,0.7,3.9,1.3
			C355.8,220.2,354.8,224.3,355.9,227.6 M340.3,218.9c3.6-1,7.6-2.4,11.7-2.5c0,0.6-3.3,5.7-6.7,7.3
			C343.6,222.2,340.3,218.9,340.3,218.9 M332.3,220.7c0.6-0.1,4.8-0.9,6.9-1.4c1.6,1.5,3.4,3.3,5.1,4.8
			C344.2,224,337,225.3,332.3,220.7 M330.2,206.8c4.9,0.4,18.8,1.5,21.9,2.8c0.5,1.4,0.5,3.4,0.3,4.9c-4.8-1.2-10.5-1.3-15.3,0
			C337.1,214.5,332.3,209.2,330.2,206.8 M353.3,209.9c2.2,0.6,4.5,2.2,6.4,3.6c-1.1,1.2-1.6,2-2.2,3.3c-1.2-0.9-2.1-1.3-4.2-2
			C353.5,213.2,353.5,211.4,353.3,209.9 M345.1,195.9c1.5-3.7,0.7-6.5-1.1-10c5.5-7.2-1.5-17.1-6.5-22.2c-2.6-2.7-8.7-9.5-9.2-10.3
			c-1.2-11.6,4.5-21.9,4.9-22.8c-2.8,6-4.2,14.5,11.7,34.2c2.8,3.5,6.7,7.4,6.5,12.6c-0.1,4.6-3.8,8.3-3.3,12.5
			c0.4,2.8,1.9,5.1,4.9,5.7c3.2,0.6,5.7-0.3,7.7-2.5c6.4-8.4-3.5-14.5-3.5-22.9c0-3.2,1.8-5.1,4.6-6.1c1.9-0.6,4.5-1.1,6,0.4
			c-0.6,0.1-1.7,0.3-3,0.9l0,0c-0.2-0.3-0.5-0.4-0.8-0.4c-0.5,0-1,0.4-1,1l0.1,0.4c0.1,0.4,0.5,0.6,1,0.5l0.1,0
			c0.2,0,0.4-0.1,0.6-0.3c1.3-0.8,2.8-1,3.5-1.1l0,0c6-0.4,4.4,2.8,4.4,2.8s-4.6-2.6-9.2,1.7c-6.7,7.5,24.1,22.4,1,39.3
			c-1-0.9-3.9-2.9-5.9-3.7c-0.2,0.2-0.3,0.4-0.4,0.6c2,0.9,4,2.2,5.6,3.6c-1.4,0.9-2.2,1.7-3.3,2.7c-2.1-2.1-4.5-3.8-7.5-5.1
			C351.6,203,348.6,199,345.1,195.9 M344.3,195.2c-5.4-4.1-14.3-8.2-22.9-11.5c-0.8-2-2.2-9.5-2.3-10.7c2.5,2,6.1,4.3,9.3,5.9
			c4,13.1,12.6,9.5,14.3,8.3C344.9,189.3,345.3,192.2,344.3,195.2 M323.1,189.3c4.4,1.6,18.3,8,19.4,8.6
			C341.1,199.4,331.9,202.7,323.1,189.3 M320.8,140.6c-0.2,2.4,0.1,8.5,5.5,17.9c-0.2,4.5,0.1,9,0.7,13.3c-3-1.5-5.5-3.3-8.3-4.9
			C318.4,163.1,318.9,144.7,320.8,140.6 M342.1,186.5c-0.6,0.6-8.9,4.3-12.5-7.1C333.6,181.2,338.7,183.6,342.1,186.5 M327.4,159.8
			c2.4,3.9,19.7,17.1,16.1,24.9c-4.3-6-14.7-11.6-15.1-12.2C327.5,168.6,327.3,164.1,327.4,159.8 M375.8,210.8
			c-0.2,1.6-0.4,2.2-0.3,4.8c-1.5,0.4-3.1,0.9-4.3,1.7c-0.5-1.3-1.2-2.4-2-3.4C369.2,213.9,372.4,211.6,375.8,210.8 M420.7,197.3
			c3,4.1-10.3,7.7-16.1,7.9C404.6,205.1,416.6,193.4,420.7,197.3 M412.3,217.4c0.4,1.8-5,5.9-12.1,2.5
			C407.1,214.8,411.9,215,412.3,217.4 M316.4,214.2c0.7-4.8,9.9,1,11.9,2.9C325.3,218.6,316.5,218.6,316.4,214.2 M309.3,193.6
			c3-4.3,12.6,5.1,15.8,8.6C323.2,201.9,306.7,198.3,309.3,193.6 M411,186.5c2.5-6.7,2.2-7.4,3.1-10.8c7.9-4.2,9.7-14.5,9.6-15.6
			c-0.2-3.1,0-1.4-0.3-0.3c-0.9,3-3.8,6.5-6.4,8.5c-0.7,0.4-1.5,1.1-2.3,1.5c0.2-2.8,3.3-20.6-3.7-34.4l0,0
			c2.2,6.9-0.8,14.4-4.9,19.6c-0.1-1-1.7-18.8-9.5-27.8l-0.7-0.8c1.2,1.9,2.6,12.8-3.6,23.3c-3.2,4.8-7.5,9-11.3,13.3
			c-3.6,4.5-5.3,8.9-3.6,16.7c0.6,2.1,1.4,5.3,2.4,6.1c0.6,0.2,0.5-0.5,0.3-0.9c-1-2-2.4-10.2,6.8-20.8
			c15.4-17.8,11.1-33.3,11.1-33.3c2.5,2.6,6.5,17.4,6.9,25.5c-4.8,5.5-22,17.9-19.4,27.7c0.3,1.3,0.8,2.6,1.4,3.6
			c-2.3,3.7-3,6.4-1.8,10c-3.4,2.8-7.2,6.6-8.8,10.9c-2.8,1-5.4,2.4-7.8,4.6c-0.9-1.1-1.7-1.9-2.8-2.8c0.7-0.4,7.6-4.1,10.3-7
			c2.6-2.7,4.2-6.5,3.2-10.7c-1.7-7.3-18.2-17-14.7-21.2c1.8-2.3,5.9-3.3,8.3-1.7v0l0,0l0,0l0,0l0.5,0.4c1.1-1.6,2.2-5.7-4.2-5.6
			c-0.5-1.3-2.1-1.8-3.4-2c-4.1-0.3-8,1.6-9.5,5.1c-1.9,4.5,3.7,14.3,3.4,20.7c0.2,5.4-10.6,9-10.5,0.6c0.1-3.8,8.9-14.1,0.7-26
			c-3.1-4.1-6.7-7.9-9.7-11.8c-11.1-14.2-4.5-24.8-4.6-24.8c-10.9,14-8.3,25.6-8.6,25.1c-0.7-1.3-6.8-8.6-3.9-18.1
			c0,0-6.7,8.4-5.5,32.8c-1.2-0.7-8.2-7-7.9-11.8c0,0-1.6,10.5,8.2,18c0.8,3.8,1,7.1,2.2,10.9c-3.8-1.4-9.7-5.9-11.6-10.1
			c-0.3-0.8,1.1,9.6,13,15.5c9.5,16.3,20.2,12,22.4,9.8c3.1,1.2,7.6,7.7,7.8,8.6c-6.3-2-16.4-4.3-24.3-4.6
			c-4.5-4.5-14.4-13.9-18.7-9.4c-4.6,5.9,11.3,12.7,19.6,13.5c2.2,2.4,5.5,5.6,7.7,8.3c-2.5,0.6-2.9,0.8-6.4,2
			c-11.9-9.7-13.7-3.1-13.7-3.1c-1.8,7.9,13.5,7.5,15.3,7.1c4.4,4.6,10.9,5,14,4c4.6,4.3,9.6,4.1,11.1,3.8c5,11.6,13.7,5.9,15.7,0.6
			c4.4,1.1,8.1-0.6,11.3-3c2.2,0.8,8.4,1.9,14.2-2.9c14.8,2.8,16.3-5,15.6-6.5c-2.2-4.4-11.2,0.6-13.7,2.7c-2.6-1.1-3.7-1.8-6.2-2.6
			c2.6-2.8,5.6-5.4,8.3-7.7c29.9-2.2,25-26.3,1.4-4c-6.9-0.1-17.5,0.9-24.8,2.8c-0.1-0.6,4.6-6.5,8.5-8c7.3,6.6,18.2,0,23-8.2
			c7.2-2.7,12.1-8.1,13.8-13.6l0.4-1C421.9,179.9,416.6,185,411,186.5"/>
	</g>
</g>
</svg>
