<?xml version="1.0" standalone="no"?>
<!DOCTYPE svg PUBLIC "-//W3C//DTD SVG 20010904//EN"
 "http://www.w3.org/TR/2001/REC-SVG-20010904/DTD/svg10.dtd">
<svg version="1.0" xmlns="http://www.w3.org/2000/svg"
 width="1437.000000pt" height="554.000000pt" viewBox="0 0 1437.000000 554.000000"
 preserveAspectRatio="xMidYMid meet">
<metadata>
Created by potrace 1.16, written by Peter Selinger 2001-2019
</metadata>
<g transform="translate(0.000000,554.000000) scale(0.100000,-0.100000)"
fill="#000000" stroke="none">
<path d="M0 2770 l0 -2770 7185 0 7185 0 0 2770 0 2770 -7185 0 -7185 0 0
-2770z m2853 789 c108 -36 161 -82 186 -160 11 -34 10 -107 -4 -256 l-5 -53
65 0 c77 0 79 -3 90 -116 l7 -69 -113 0 -113 0 -23 -90 c-37 -146 -49 -288
-34 -403 7 -53 19 -110 25 -127 14 -33 112 -145 128 -145 5 0 24 -11 41 -24
98 -73 222 -110 353 -104 81 3 100 8 167 41 89 44 137 94 180 186 73 156 19
363 -135 513 -58 57 -97 78 -195 108 -80 24 -71 11 -89 128 -3 20 -8 47 -11
59 -5 21 -3 22 28 17 192 -35 308 -87 415 -187 174 -163 256 -342 255 -557 0
-109 -17 -184 -62 -272 -38 -75 -133 -177 -209 -223 -208 -126 -514 -116 -751
25 -69 41 -219 173 -219 192 0 5 -11 24 -24 41 -30 39 -86 156 -86 179 0 9 -5
18 -12 20 -18 6 -23 250 -8 360 7 50 22 127 34 173 l22 82 -130 6 c-119 6
-240 20 -274 32 -18 6 25 62 86 112 l46 38 169 0 169 0 23 62 c13 35 27 89 31
122 6 52 4 63 -16 92 -116 162 -560 37 -560 -158 0 -22 -16 -45 -70 -98 -79
-78 -79 -78 -106 13 -49 166 91 353 322 431 132 44 294 48 407 10z"/>
</g>
</svg>
